<mxfile host="app.diagrams.net" modified="2024-06-24T16:50:37.122Z" agent="Mozilla/5.0 (Windows NT 10.0; Win64; x64) AppleWebKit/537.36 (KHTML, like Gecko) Chrome/126.0.0.0 Safari/537.36" version="24.6.2" etag="1zCyUeqG7XYIs71SB6jb" type="github">
  <diagram name="Page-1" id="RZkNUwxGnVvgcAzC797V">
    <mxGraphModel>
      <root>
        <mxCell id="0" />
        <mxCell id="1" parent="0" />
      </root>
    </mxGraphModel>
  </diagram>
</mxfile>
